# xmcd
#
# Track frame offsets:
#	150
#	17221
#	31168
#	49869
#	70501
#	86039
#	99504
#	114462
#	127339
#	148282
#	166648
#	185102
#	201691
#	218060
#	233788
#	250708
#	273754
#	291560
#	309813
#	324809
#
# Disc length: 4588 seconds
#
# Revision: 2
# Processed by: cddbd v1.5.2PL0 Copyright (c) Steve Scherf et al.
# Submitted via: audiograbber 1.83.01
#
DISCID=2511ea14
DTITLE=100 Hits Presents No.1s Karaoke (3/5) - 100 Hits Presents No.1s Karaoke 
DTITLE=(3/5)
DYEAR=2010
DGENRE=Karaoke
TTITLE0=Chesney Hawkes (made famous by ~) (karaoke) - The one and only
TTITLE1=Dead Or Alive (made famous by ~) (karaoke) - You spin me round (like a 
TTITLE1=record)
TTITLE2=Dexys Midnight Runners (made famous by ~) (karaoke) - Come on Eileen
TTITLE3=Duran Duran (made famous by ~) (karaoke) - The reflex
TTITLE4=Frankie Goes To Hollywood (made famous by ~) (karaoke) - Two tribes
TTITLE5=Irene Cara (made famous by ~) (karaoke) - Fame
TTITLE6=Kylie Minogue - I should be so lucky
TTITLE7=Soft Cell (made famous by ~) (karaoke) - Tainted love
TTITLE8=Village People (made famous by ~) (karaoke) - Y.M.C.A.
TTITLE9=Wham! (made famous by ~) (karaoke) - I'm your man
TTITLE10=Berlin (made famous by ~) (karaoke) - Take my breath away
TTITLE11=Adam And The Ants (made famous by ~) (karaoke) - Stand and deliver
TTITLE12=A1 (made famous by ~) (karaoke) - Take on me
TTITLE13=Blondie (made famous by ~) (karaoke) - Call me
TTITLE14=Michael Jackson (made famous by ~) (karaoke) - Billie Jean
TTITLE15=George Michael (made famous by ~) (karaoke) - Careless Whisper
TTITLE16=Foreigner (made famous by ~) (karaoke) - I want to know what love is
TTITLE17=Take That (made famous by ~) (karaoke) - Back for good
TTITLE18=UB40 (made famous by ~) (karaoke) - Red red wine
TTITLE19=Chris De Burgh (made famous by ~) (karaoke) - Lady in red
EXTD=
EXTT0=
EXTT1=
EXTT2=
EXTT3=
EXTT4=
EXTT5=
EXTT6=
EXTT7=
EXTT8=
EXTT9=
EXTT10=
EXTT11=
EXTT12=
EXTT13=
EXTT14=
EXTT15=
EXTT16=
EXTT17=
EXTT18=
EXTT19=
PLAYORDER=
